<svg width="120" height="53" viewBox="0 0 120 53" fill="none" xmlns="http://www.w3.org/2000/svg">
<path d="M55.1447 9.03763C55.1447 11.2696 53.2697 12.6417 50.7518 12.6417C48.3947 12.6417 46.7518 11.4891 46.0732 9.8243L47.8411 8.7815C48.2161 9.93407 49.3054 10.6659 50.7518 10.6659C52.0018 10.6659 53.0732 10.2085 53.0732 9.03763C53.0732 6.45806 46.5018 7.92164 46.5018 3.56748C46.5018 1.46358 48.2875 0 50.6625 0C52.5911 0 54.1447 0.933034 54.8947 2.50639L53.1804 3.49431C52.734 2.41491 51.6982 1.95754 50.6625 1.95754C49.609 1.95754 48.5732 2.48809 48.5732 3.56748C48.5732 6.12875 55.1447 4.61029 55.1447 9.03763Z" fill="#1176ED"/>
<path d="M69.0018 0.311011V12.349H66.9661V10.2817C66.0197 11.7453 64.5196 12.66 62.5197 12.66C59.2518 12.66 56.5732 9.89748 56.5732 6.33C56.5732 2.76251 59.2518 0 62.5197 0C64.5196 0 66.0197 0.914739 66.9661 2.37832V0.311011H69.0018ZM66.9661 6.33C66.9661 3.87849 65.1625 2.03072 62.7875 2.03072C60.4304 2.03072 58.6268 3.87849 58.6268 6.33C58.6268 8.7815 60.4304 10.6293 62.7875 10.6293C65.1625 10.6293 66.9661 8.7815 66.9661 6.33Z" fill="#1176ED"/>
<path d="M80.4122 9.03763C80.4122 11.2696 78.5372 12.6417 76.0194 12.6417C73.6622 12.6417 72.0194 11.4891 71.3408 9.8243L73.1087 8.7815C73.4837 9.93407 74.573 10.6659 76.0194 10.6659C77.2694 10.6659 78.3408 10.2085 78.3408 9.03763C78.3408 6.45806 71.7694 7.92164 71.7694 3.56748C71.7694 1.46358 73.5551 0 75.9301 0C77.8587 0 79.4122 0.933034 80.1622 2.50639L78.448 3.49431C78.0015 2.41491 76.9658 1.95754 75.9301 1.95754C74.8765 1.95754 73.8408 2.48809 73.8408 3.56748C73.8408 6.12875 80.4122 4.61029 80.4122 9.03763Z" fill="#1176ED"/>
<path d="M58.5741 20.4902V32.5282H56.5384V30.4609C55.5919 31.9244 54.0919 32.8392 52.0919 32.8392C48.8241 32.8392 46.1455 30.0767 46.1455 26.5092C46.1455 22.9417 48.8241 20.1792 52.0919 20.1792C54.0919 20.1792 55.5919 21.0939 56.5384 22.5575V20.4902H58.5741ZM56.5384 26.5092C56.5384 24.0577 54.7348 22.2099 52.3598 22.2099C50.0026 22.2099 48.1991 24.0577 48.1991 26.5092C48.1991 28.9607 50.0026 30.8085 52.3598 30.8085C54.7348 30.8085 56.5384 28.9607 56.5384 26.5092Z" fill="#1176ED"/>
<path d="M72.0736 25.1371V32.5282H70.0378V25.2469C70.0378 23.271 68.9307 22.1733 67.1271 22.1733C65.2521 22.1733 63.7164 23.3076 63.7164 26.1433V32.5099H61.6807V20.4902H63.7164V22.2282C64.5914 20.8012 65.8771 20.1792 67.52 20.1792C70.27 20.1792 72.0736 22.0453 72.0736 25.1371Z" fill="#1176ED"/>
<path d="M74.5732 16.9045C74.5732 16.1362 75.1804 15.4775 75.9661 15.4775C76.7161 15.4775 77.3232 16.1362 77.3232 16.9045C77.3232 17.6729 76.7161 18.2949 75.9661 18.2949C75.1804 18.2949 74.5732 17.6729 74.5732 16.9045ZM74.9304 20.4903H76.9661V32.5283H74.9304V20.4903Z" fill="#1176ED"/>
<path d="M97.1808 25.0273V32.5099H95.1451V25.1005C95.1451 23.1978 94.1094 22.1733 92.5558 22.1733C90.9129 22.1733 89.6629 23.2344 89.6629 25.8323V32.5282H87.6272V25.1188C87.6272 23.2161 86.6629 22.1916 85.1451 22.1916C83.5737 22.1916 82.1451 23.2527 82.1451 25.8506V32.5465H80.1094V20.4902H82.1451V22.1002C82.9844 20.7463 84.2165 20.1792 85.6451 20.1792C87.2344 20.1792 88.4129 20.9293 89.0915 22.2282C89.9129 20.8561 91.2522 20.1792 92.7701 20.1792C95.3772 20.1792 97.1808 22.027 97.1808 25.0273Z" fill="#1176ED"/>
<path d="M111.787 20.4902V32.5282H109.751V30.4609C108.805 31.9244 107.305 32.8392 105.305 32.8392C102.037 32.8392 99.3584 30.0767 99.3584 26.5092C99.3584 22.9417 102.037 20.1792 105.305 20.1792C107.305 20.1792 108.805 21.0939 109.751 22.5575V20.4902H111.787ZM109.751 26.5092C109.751 24.0577 107.948 22.2099 105.573 22.2099C103.216 22.2099 101.412 24.0577 101.412 26.5092C101.412 28.9607 103.216 30.8085 105.573 30.8085C107.948 30.8085 109.751 28.9607 109.751 26.5092Z" fill="#1176ED"/>
<path d="M114.895 14.9468H116.93V32.5098H114.895V14.9468Z" fill="#1176ED"/>
<path d="M55.1447 49.3958C55.1447 51.6277 53.2697 52.9998 50.7518 52.9998C48.3947 52.9998 46.7518 51.8473 46.0732 50.1824L47.8411 49.1396C48.2161 50.2922 49.3054 51.024 50.7518 51.024C52.0018 51.024 53.0732 50.5666 53.0732 49.3958C53.0732 46.8162 46.5018 48.2798 46.5018 43.9256C46.5018 41.8034 48.2875 40.3398 50.6625 40.3398C52.5911 40.3398 54.1447 41.2729 54.8947 42.8462L53.1804 43.8342C52.734 42.7548 51.6982 42.2974 50.6625 42.2974C49.609 42.2974 48.5732 42.8279 48.5732 43.9073C48.5732 46.4869 55.1447 44.9684 55.1447 49.3958Z" fill="#1176ED"/>
<path d="M62.9301 51.024C64.5551 51.024 65.7158 50.2556 66.3051 49.2677L68.0373 50.2739C67.0015 51.9022 65.2158 52.9998 62.8765 52.9998C59.0908 52.9998 56.5908 50.2739 56.5908 46.6698C56.5908 43.1024 59.073 40.3398 62.7515 40.3398C66.3051 40.3398 68.5908 43.3219 68.5908 46.6881C68.5908 46.9991 68.573 47.3102 68.5194 47.6212H58.6801C59.073 49.7983 60.7337 51.024 62.9301 51.024ZM58.6801 45.81H66.5194C66.1623 43.4317 64.5015 42.3157 62.7337 42.3157C60.5194 42.3157 59.0015 43.7244 58.6801 45.81Z" fill="#1176ED"/>
<path d="M76.6447 40.4497V42.6451C74.8768 42.5719 72.9839 43.4866 72.9839 46.3223V52.6889H70.9482V40.6509H72.9839V42.6634C73.7339 40.9985 75.1625 40.4497 76.6447 40.4497Z" fill="#1176ED"/>
<path d="M89.0553 40.6692L84.3588 52.6889H81.966L77.2695 40.6509H79.4838L83.1624 50.4386L86.841 40.6509H89.0553V40.6692Z" fill="#1176ED"/>
<path d="M90.4482 37.0837C90.4482 36.3154 91.0554 35.6567 91.8411 35.6567C92.5911 35.6567 93.1982 36.3154 93.1982 37.0837C93.1982 37.8521 92.5911 38.4741 91.8411 38.4741C91.0554 38.4741 90.4482 37.8521 90.4482 37.0837ZM90.8054 40.6695H92.8411V52.6892H90.8054V40.6695Z" fill="#1176ED"/>
<path d="M95.3047 46.6698C95.3047 43.1024 97.9297 40.3398 101.483 40.3398C103.805 40.3398 105.787 41.5839 106.68 43.4865L104.965 44.4928C104.376 43.2121 103.055 42.3706 101.483 42.3706C99.144 42.3706 97.3583 44.2183 97.3583 46.6515C97.3583 49.0482 99.144 50.9142 101.483 50.9142C103.073 50.9142 104.376 50.0727 105.037 48.8286L106.769 49.8714C105.787 51.7558 103.787 52.9998 101.483 52.9998C97.9297 52.9998 95.3047 50.2373 95.3047 46.6698Z" fill="#1176ED"/>
<path d="M114.305 51.024C115.93 51.024 117.091 50.2556 117.68 49.2677L119.412 50.2739C118.377 51.9022 116.591 52.9998 114.252 52.9998C110.466 52.9998 107.966 50.2739 107.966 46.6698C107.966 43.1024 110.448 40.3398 114.127 40.3398C117.68 40.3398 119.966 43.3219 119.966 46.6881C119.966 46.9991 119.948 47.3102 119.894 47.6212H110.055C110.448 49.7983 112.127 51.024 114.305 51.024ZM110.055 45.81H117.894C117.537 43.4317 115.877 42.3157 114.109 42.3157C111.912 42.3157 110.377 43.7244 110.055 45.81Z" fill="#1176ED"/>
<path d="M28.0893 25.7408L17.4286 19.3559L13.5714 20.3804C11.8214 20.8378 9.98214 20.1243 8.96429 18.5875L7.23214 15.9531L9.375 13.9589V12.9893C9.375 12.2575 9.67857 11.544 10.2143 11.0501L12.7857 8.65343V4.84812L17.8393 7.88505L22.8929 10.9037C24.8214 12.0746 27.3214 11.4891 28.5714 9.58647L34.8929 0H14.7857C6.625 0 0 6.78737 0 15.1481C0 20.1426 2.58929 24.7528 6.78571 27.2775L8.55357 28.3386L17.8571 25.8871L15.6429 29.2351L18.1429 30.7352C19.4464 31.5219 20.25 32.9489 20.25 34.504V35.3455L27.5179 39.6997L25.125 43.3221C23.3571 45.9931 19.875 46.8164 17.1607 45.1881L11.9821 42.0963C10.0357 40.9254 7.55357 41.5109 6.28571 43.4318L0 53H20.1071C28.2679 53 34.8929 46.2126 34.8929 37.8519C34.8929 32.8757 32.3036 28.2472 28.0893 25.7408Z" fill="#1176ED"/>
</svg>
