<svg width="172" height="76" viewBox="0 0 172 76" fill="none" xmlns="http://www.w3.org/2000/svg">
<path d="M79.0395 12.9596C79.0395 16.1602 76.352 18.1277 72.7431 18.1277C69.3645 18.1277 67.0097 16.475 66.0371 14.0877L68.571 12.5923C69.1085 14.2451 70.6698 15.2944 72.7431 15.2944C74.5347 15.2944 76.0704 14.6386 76.0704 12.9596C76.0704 9.26062 66.6514 11.3593 66.6514 5.11564C66.6514 2.09872 69.2109 0 72.6151 0C75.3794 0 77.6062 1.33794 78.6812 3.59406L76.224 5.0107C75.5841 3.46289 74.0996 2.80704 72.6151 2.80704C71.105 2.80704 69.6204 3.56783 69.6204 5.11564C69.6204 8.7884 79.0395 6.61098 79.0395 12.9596Z" fill="white"/>
<path d="M98.9012 0.445979V17.708H95.9833V14.7435C94.6268 16.8423 92.4768 18.154 89.6101 18.154C84.9262 18.154 81.0869 14.1926 81.0869 9.07698C81.0869 3.96134 84.9262 0 89.6101 0C92.4768 0 94.6268 1.3117 95.9833 3.41042V0.445979H98.9012ZM95.9833 9.07698C95.9833 5.56162 93.3982 2.91198 89.994 2.91198C86.6155 2.91198 84.0304 5.56162 84.0304 9.07698C84.0304 12.5923 86.6155 15.242 89.994 15.242C93.3982 15.242 95.9833 12.5923 95.9833 9.07698Z" fill="white"/>
<path d="M115.256 12.9596C115.256 16.1602 112.569 18.1277 108.96 18.1277C105.581 18.1277 103.227 16.475 102.254 14.0877L104.788 12.5923C105.325 14.2451 106.887 15.2944 108.96 15.2944C110.752 15.2944 112.287 14.6386 112.287 12.9596C112.287 9.26062 102.868 11.3593 102.868 5.11564C102.868 2.09872 105.428 0 108.832 0C111.596 0 113.823 1.33794 114.898 3.59406L112.441 5.0107C111.801 3.46289 110.316 2.80704 108.832 2.80704C107.322 2.80704 105.837 3.56783 105.837 5.11564C105.837 8.7884 115.256 6.61098 115.256 12.9596Z" fill="white"/>
<path d="M83.9549 29.382V46.644H81.037V43.6795C79.6805 45.7783 77.5305 47.09 74.6638 47.09C69.9799 47.09 66.1406 43.1286 66.1406 38.013C66.1406 32.8974 69.9799 28.936 74.6638 28.936C77.5305 28.936 79.6805 30.2477 81.037 32.3465V29.382H83.9549ZM81.037 38.013C81.037 34.4976 78.4519 31.848 75.0478 31.848C71.6692 31.848 69.0841 34.4976 69.0841 38.013C69.0841 41.5284 71.6692 44.178 75.0478 44.178C78.4519 44.178 81.037 41.5284 81.037 38.013Z" fill="white"/>
<path d="M103.304 36.0455V46.644H100.386V36.2029C100.386 33.3696 98.7989 31.7955 96.2138 31.7955C93.5263 31.7955 91.3251 33.4221 91.3251 37.4883V46.6178H88.4072V29.382H91.3251V31.8742C92.5793 29.828 94.4221 28.936 96.7769 28.936C100.719 28.936 103.304 31.6119 103.304 36.0455Z" fill="white"/>
<path d="M106.888 24.2401C106.888 23.1383 107.758 22.1938 108.884 22.1938C109.959 22.1938 110.829 23.1383 110.829 24.2401C110.829 25.3419 109.959 26.2339 108.884 26.2339C107.758 26.2339 106.888 25.3419 106.888 24.2401ZM107.4 29.382H110.317V46.644H107.4V29.382Z" fill="white"/>
<path d="M139.29 35.888V46.6178H136.372V35.993C136.372 33.2646 134.888 31.7955 132.661 31.7955C130.306 31.7955 128.515 33.3171 128.515 37.0423V46.644H125.597V36.0192C125.597 33.2909 124.215 31.8218 122.039 31.8218C119.787 31.8218 117.739 33.3433 117.739 37.0686V46.6702H114.821V29.382H117.739V31.6906C118.942 29.7493 120.708 28.936 122.756 28.936C125.034 28.936 126.723 30.0116 127.696 31.8742C128.873 29.9067 130.793 28.936 132.968 28.936C136.705 28.936 139.29 31.5857 139.29 35.888Z" fill="white"/>
<path d="M160.227 29.382V46.644H157.31V43.6795C155.953 45.7783 153.803 47.09 150.936 47.09C146.252 47.09 142.413 43.1286 142.413 38.013C142.413 32.8974 146.252 28.936 150.936 28.936C153.803 28.936 155.953 30.2477 157.31 32.3465V29.382H160.227ZM157.31 38.013C157.31 34.4976 154.724 31.848 151.32 31.848C147.942 31.848 145.357 34.4976 145.357 38.013C145.357 41.5284 147.942 44.178 151.32 44.178C154.724 44.178 157.31 41.5284 157.31 38.013Z" fill="white"/>
<path d="M164.681 21.4326H167.598V46.6173H164.681V21.4326Z" fill="white"/>
<path d="M79.0395 70.8316C79.0395 74.0321 76.352 75.9997 72.7431 75.9997C69.3645 75.9997 67.0097 74.3469 66.0371 71.9596L68.571 70.4643C69.1085 72.117 70.6698 73.1664 72.7431 73.1664C74.5347 73.1664 76.0704 72.5105 76.0704 70.8316C76.0704 67.1326 66.6514 69.2313 66.6514 62.9876C66.6514 59.9444 69.2109 57.8457 72.6151 57.8457C75.3794 57.8457 77.6062 59.1836 78.6812 61.4398L76.224 62.8564C75.5841 61.3086 74.0996 60.6527 72.6151 60.6527C71.105 60.6527 69.6204 61.4135 69.6204 62.9613C69.6204 66.6603 79.0395 64.4829 79.0395 70.8316Z" fill="white"/>
<path d="M90.1986 73.1664C92.5278 73.1664 94.1915 72.0646 95.0361 70.6479L97.5189 72.0908C96.0343 74.4256 93.4748 75.9997 90.1218 75.9997C84.6956 75.9997 81.1123 72.0908 81.1123 66.9227C81.1123 61.807 84.67 57.8457 89.9427 57.8457C95.0361 57.8457 98.3123 62.1219 98.3123 66.9489C98.3123 67.3949 98.2867 67.8409 98.2099 68.2868H84.1069C84.67 71.4087 87.0504 73.1664 90.1986 73.1664ZM84.1069 65.6897H95.3433C94.8314 62.2793 92.451 60.679 89.9171 60.679C86.7433 60.679 84.5677 62.699 84.1069 65.6897Z" fill="white"/>
<path d="M109.856 58.0039V61.152C107.322 61.0471 104.609 62.3588 104.609 66.425V75.5545H101.691V58.2925H104.609V61.1782C105.684 58.7909 107.732 58.0039 109.856 58.0039Z" fill="white"/>
<path d="M127.645 58.3187L120.913 75.5545H117.484L110.752 58.2925H113.926L119.198 72.3277L124.471 58.2925H127.645V58.3187Z" fill="white"/>
<path d="M129.642 53.1761C129.642 52.0743 130.512 51.1299 131.638 51.1299C132.713 51.1299 133.583 52.0743 133.583 53.1761C133.583 54.278 132.713 55.1699 131.638 55.1699C130.512 55.1699 129.642 54.278 129.642 53.1761ZM130.154 58.318H133.071V75.5537H130.154V58.318Z" fill="white"/>
<path d="M136.604 66.9227C136.604 61.807 140.366 57.8457 145.459 57.8457C148.787 57.8457 151.628 59.6296 152.908 62.358L150.451 63.8008C149.606 61.9644 147.712 60.7577 145.459 60.7577C142.106 60.7577 139.547 63.4073 139.547 66.8964C139.547 70.3331 142.106 73.009 145.459 73.009C147.737 73.009 149.606 71.8022 150.553 70.0183L153.036 71.5136C151.628 74.2157 148.761 75.9997 145.459 75.9997C140.366 75.9997 136.604 72.0383 136.604 66.9227Z" fill="white"/>
<path d="M163.836 73.1664C166.165 73.1664 167.829 72.0646 168.674 70.6479L171.157 72.0908C169.672 74.4256 167.112 75.9997 163.76 75.9997C158.333 75.9997 154.75 72.0908 154.75 66.9227C154.75 61.807 158.308 57.8457 163.58 57.8457C168.674 57.8457 171.95 62.1219 171.95 66.9489C171.95 67.3949 171.924 67.8409 171.848 68.2868H157.745C158.308 71.4087 160.714 73.1664 163.836 73.1664ZM157.745 65.6897H168.981C168.469 62.2793 166.089 60.679 163.555 60.679C160.407 60.679 158.205 62.699 157.745 65.6897Z" fill="white"/>
<path d="M40.2613 36.9113L24.981 27.7556L19.4524 29.2247C16.944 29.8806 14.3077 28.8574 12.8488 26.6538L10.3661 22.8761L13.4375 20.0166V18.6262C13.4375 17.5768 13.8726 16.5537 14.6405 15.8454L18.3262 12.4087V6.95202L25.5696 11.3069L32.8131 15.6355C35.5774 17.3145 39.1607 16.475 40.9524 13.7466L50.0131 0H21.1929C9.49583 0 0 9.73283 0 21.7218C0 28.8837 3.71131 35.4946 9.72619 39.1149L12.2601 40.6365L25.5952 37.1212L22.4214 41.922L26.0048 44.0732C27.8732 45.2012 29.025 47.2475 29.025 49.4774V50.6842L39.4423 56.9279L36.0125 62.1222C33.4786 65.9524 28.4875 67.1329 24.597 64.7981L17.1744 60.3645C14.3845 58.6855 10.8268 59.525 9.00952 62.2796L0 76H28.8202C40.5173 76 50.0131 66.2672 50.0131 54.2782C50.0131 47.1426 46.3018 40.5053 40.2613 36.9113Z" fill="white"/>
</svg>
